<svg width="209" height="100" viewBox="0 0 209 100" fill="none" xmlns="http://www.w3.org/2000/svg">
<rect x="2" y="3" width="198" height="66" rx="7" fill="#FFE8C3" stroke="#FA9E07" stroke-width="4"/>
<path d="M5.768 36.984C5 29.752 6.92 23.416 9.672 17.464C11.464 13.56 14.28 10.296 17.864 8.12C18.44 7.8 19.08 7.48 19.656 7.48C24.392 7.416 28.552 8.696 31.56 13.048C32.52 14.52 33.032 15.992 33.096 17.784C33.16 19.064 33.288 20.28 33.352 21.56C33.48 23.864 32.264 25.016 30.216 24.632C27.4 24.12 26.696 22.904 27.208 19.704C27.72 16.568 25.864 13.624 23.176 13.432C22.664 13.432 21.96 13.432 21.64 13.816C20.04 15.288 18.44 16.76 17.096 18.488C14.536 21.944 13.064 26.104 12.296 30.456C11.848 33.272 11.976 36.152 11.912 39.032C11.848 40.376 12.04 41.72 12.104 43.128C12.296 46.2 14.6 48.888 17.416 49.08C19.656 49.272 21.704 49.08 23.112 46.648C23.752 45.624 25.16 45.176 26.248 44.6C26.504 44.408 26.952 44.6 27.336 44.728C30.088 45.752 30.984 49.72 29.064 51.96C26.248 55.352 22.536 56.056 18.696 55.544C14.152 54.968 10.504 52.216 7.56 48.44C6.216 46.712 5.96 44.408 5.832 42.232C5.704 40.376 5.768 38.456 5.768 36.984ZM34.816 29.048C35.52 25.464 37.504 22.328 39.424 18.936C41.6 19.512 43.584 18.936 45.632 19.448C48.32 20.024 49.984 21.624 51.392 23.48C53.12 25.72 53.952 28.408 54.784 31.032C55.936 34.424 56.64 37.816 55.872 41.4C55.872 41.528 55.872 41.656 55.872 41.784C57.28 46.008 55.104 49.656 53.696 53.432C53.568 53.944 53.184 54.392 52.864 54.776C51.904 55.928 50.944 57.016 49.984 58.168C48.192 60.216 44.352 60.984 41.216 60.088C39.68 59.704 38.528 58.936 37.696 57.784C37.44 57.4 37.184 57.08 36.928 56.824C34.24 54.456 33.28 51.448 32.96 48.12C32.448 43.064 32.576 38.072 33.92 33.144C34.304 31.8 34.496 30.456 34.816 29.048ZM51.264 39.288C51.264 37.752 51.456 36.216 51.2 34.744C50.688 32.312 49.92 29.944 49.088 27.64C48.704 26.552 48 25.528 47.168 24.632C45.504 22.968 42.816 23.352 41.984 25.464C41.152 27.448 40.384 29.432 39.808 31.48C38.272 37.432 36.928 43.448 38.336 49.72C38.784 51.896 39.488 53.88 41.408 55.352C42.112 55.864 42.624 56.056 43.52 55.736C46.464 54.584 48.384 52.344 49.664 49.72C51.2 46.456 51.648 42.872 51.264 39.288ZM74.0255 45.176C74.1535 44.472 74.2815 43.768 74.4095 43.064C75.4335 37.816 75.4975 32.44 75.6895 27.128C75.7535 24.056 75.6895 21.048 75.7535 17.976C75.7535 16.312 76.3295 15.8 78.0575 16.12C78.8895 16.248 79.7215 16.696 80.4255 17.208C81.2575 17.656 81.2575 18.36 81.0015 19.256C80.2975 22.072 80.1055 24.952 80.5535 27.832C80.6815 28.92 80.4895 30.072 80.4255 31.224C80.3615 33.656 80.2975 36.088 80.1695 38.52C80.1695 38.968 80.1695 39.416 80.0415 39.864C79.7215 41.336 79.6575 42.872 79.5935 44.344C79.4655 47.352 78.2495 50.104 77.0975 52.856C76.6495 54.008 74.9215 54.328 73.5135 53.688C71.4015 52.728 70.1215 51.256 69.4815 48.952C67.6895 42.68 65.6415 36.408 63.7215 30.136C63.6575 29.944 63.5295 29.816 63.2095 29.432C63.5935 36.472 63.9775 43.192 64.2975 49.912C64.3615 51.896 64.2335 54.008 64.0415 55.992C63.9135 57.4 62.9535 57.848 61.4815 57.4C59.3695 56.696 58.6655 55.992 58.9855 54.328C59.6895 50.68 59.1775 47.032 58.9855 43.384C58.7935 38.968 58.6655 34.552 58.4095 30.136C58.2815 27.512 58.0255 24.952 57.8975 22.392C57.8335 21.88 57.8335 21.304 57.9615 20.856C58.6015 18.936 59.8175 18.488 61.4815 19.64C63.0815 20.728 64.6175 21.752 65.3215 23.672C66.0255 25.464 67.6255 26.936 68.2655 28.728C69.5455 32.312 70.4415 36.088 71.5935 39.736C72.1695 41.592 72.8735 43.384 73.5775 45.176H74.0255ZM98.2575 20.664H98.3215C98.9615 24.952 99.6655 28.856 100.242 32.76C100.434 34.04 100.434 35.32 100.498 36.6C100.69 38.776 100.946 40.952 101.074 43.128C101.202 44.984 101.202 46.84 101.33 48.696C101.394 49.72 101.586 50.808 101.778 51.896C102.162 54.072 101.138 55.288 98.9615 55.352C95.8255 55.48 94.4815 53.944 94.4175 50.68C94.2895 40.952 94.0975 31.224 92.3695 21.624C92.1775 20.728 91.7935 20.28 90.8975 20.216C88.8495 19.96 86.8655 19.64 84.8815 19.384C84.3695 19.32 83.8575 19.256 83.3455 19.128C81.7455 18.616 80.9775 17.528 81.1695 16.12C81.3615 14.904 82.6415 13.816 84.1135 13.816C85.4575 13.88 86.8655 13.88 88.1455 14.264C91.4095 15.16 94.6735 14.904 98.0015 14.584C100.818 14.392 103.698 14.136 106.578 13.816C108.37 13.624 109.906 14.136 111.442 14.904C112.658 15.48 113.106 16.184 112.722 17.528C112.146 19.512 111.89 19.832 110.29 19.896C106.386 20.152 102.546 20.344 98.2575 20.664ZM114.586 37.432C111.962 36.536 109.786 35.768 107.738 35.064C107.866 32.056 109.274 30.584 111.45 30.776C111.898 30.84 112.346 30.904 112.858 30.968C115.738 31.032 116.378 30.392 116.442 27.192C116.442 26.296 116.634 25.336 116.762 24.44C117.658 18.872 118.682 13.24 119.578 7.672C120.026 4.728 122.074 3 124.698 3.768C125.338 3.96 126.106 4.664 126.362 5.304C127.066 7.096 127.642 8.952 128.154 10.808C129.626 15.864 130.33 21.048 130.65 26.296C130.714 27 130.842 27.64 130.97 28.344C133.082 29.048 135.002 28.408 136.794 27.448C137.626 27 138.202 26.936 138.906 27.384C140.506 28.344 141.338 30.392 140.826 32.44C140.506 33.848 139.034 34.616 137.114 34.552C135.45 34.488 133.85 34.552 131.994 34.552C132.954 40.568 135.322 46.008 133.85 52.28C132.314 52.216 131.034 52.28 129.754 52.024C128.73 51.768 128.282 50.936 128.09 49.592C127.578 45.176 126.874 40.76 126.234 36.28C126.234 35.96 126.042 35.704 125.914 35.448C125.722 35.32 125.594 35.192 125.466 35.192C120.73 35.256 121.434 35.256 120.794 39.672C120.474 42.232 120.154 44.728 119.834 47.224C119.77 47.992 119.834 48.76 119.898 49.528C120.218 51.768 119.002 53.432 116.89 53.624C116.378 53.688 115.802 53.624 115.29 53.624C112.922 53.56 111.706 51.448 112.73 49.08C114.33 45.304 113.882 41.144 114.586 37.432ZM123.546 20.536C123.226 23.224 122.842 25.976 122.458 28.856C123.93 29.112 124.826 29.176 124.698 27.576C124.442 25.208 124.186 22.904 123.93 20.536C123.802 20.536 123.674 20.536 123.546 20.536ZM141.331 36.984C140.562 29.752 142.483 23.416 145.235 17.464C147.027 13.56 149.843 10.296 153.427 8.12C154.003 7.8 154.643 7.48 155.219 7.48C159.955 7.416 164.115 8.696 167.123 13.048C168.083 14.52 168.595 15.992 168.659 17.784C168.723 19.064 168.851 20.28 168.915 21.56C169.043 23.864 167.827 25.016 165.779 24.632C162.963 24.12 162.259 22.904 162.771 19.704C163.283 16.568 161.427 13.624 158.739 13.432C158.227 13.432 157.523 13.432 157.203 13.816C155.603 15.288 154.003 16.76 152.659 18.488C150.099 21.944 148.627 26.104 147.859 30.456C147.411 33.272 147.539 36.152 147.475 39.032C147.411 40.376 147.603 41.72 147.667 43.128C147.859 46.2 150.163 48.888 152.979 49.08C155.219 49.272 157.267 49.08 158.675 46.648C159.315 45.624 160.723 45.176 161.811 44.6C162.067 44.408 162.515 44.6 162.899 44.728C165.651 45.752 166.547 49.72 164.627 51.96C161.811 55.352 158.099 56.056 154.259 55.544C149.715 54.968 146.067 52.216 143.123 48.44C141.779 46.712 141.523 44.408 141.395 42.232C141.267 40.376 141.331 38.456 141.331 36.984ZM185.32 20.664H185.384C186.024 24.952 186.728 28.856 187.304 32.76C187.496 34.04 187.496 35.32 187.56 36.6C187.752 38.776 188.008 40.952 188.136 43.128C188.264 44.984 188.264 46.84 188.392 48.696C188.456 49.72 188.648 50.808 188.84 51.896C189.224 54.072 188.2 55.288 186.024 55.352C182.888 55.48 181.544 53.944 181.48 50.68C181.352 40.952 181.16 31.224 179.432 21.624C179.24 20.728 178.856 20.28 177.96 20.216C175.912 19.96 173.928 19.64 171.944 19.384C171.432 19.32 170.92 19.256 170.408 19.128C168.808 18.616 168.04 17.528 168.232 16.12C168.424 14.904 169.704 13.816 171.176 13.816C172.52 13.88 173.928 13.88 175.208 14.264C178.472 15.16 181.736 14.904 185.064 14.584C187.88 14.392 190.76 14.136 193.64 13.816C195.432 13.624 196.968 14.136 198.504 14.904C199.72 15.48 200.168 16.184 199.784 17.528C199.208 19.512 198.952 19.832 197.352 19.896C193.448 20.152 189.608 20.344 185.32 20.664Z" fill="#13428F"/>
<path d="M166.2 55.7819C165.57 53.3345 168.063 51.2529 170.359 52.3092L202.137 66.9323C204.14 67.8537 204.498 70.5478 202.806 71.9606L196.168 77.5026L202.938 84.6842L203.624 85.4117L202.896 86.0973L196.347 92.2711L195.62 92.9567L194.934 92.2291L187.709 84.566L179.746 91.2155C178.054 92.6281 175.467 91.7945 174.918 89.6598L166.2 55.7819Z" fill="#A9C7F7" stroke="#13428F" stroke-width="2"/>
</svg>
