<svg width="235" height="51" viewBox="0 0 235 51" fill="none" xmlns="http://www.w3.org/2000/svg">
<g clip-path="url(#clip0_6_34)">
<path d="M19.1662 50.9084C19.3106 50.8403 19.8938 50.9677 20.1382 50.9317C19.8919 51.5993 18.6525 51.1553 19.1662 50.9084ZM44.1102 2.55453C43.8896 2.71737 43.6692 2.88035 43.4489 3.04348C44.0769 3.14714 44.9178 3.02737 45.4961 3.18242C45.5907 3.20844 45.3448 3.67865 45.5685 3.69993C45.7922 3.72113 45.7501 3.07804 46.0756 3.00995C46.4422 2.93497 48.1057 3.38987 48.6793 3.38338C50.8301 3.35401 52.9891 3.01136 55.1206 3.31017C53.2303 3.68924 54.5721 4.12024 55.3862 4.1163C55.5281 4.11566 55.6537 4.10223 55.7447 4.07349C55.8809 4.02846 55.8834 2.83037 58.0961 3.17196C59.4968 3.39023 58.172 5.07239 60.5172 4.26464C58.751 3.03214 60.5187 3.15197 61.9052 3.14288C62.1486 3.14104 64.0603 3.36337 64.8822 3.3275C65.1643 3.31503 65.606 2.69786 65.9733 2.68854C66.2255 2.68257 66.411 3.02851 66.7807 3.01761C67.0658 3.00985 67.3483 3.00311 67.6256 2.99766C69.3315 2.97615 70.8114 3.00972 72.3254 3.13765C71.2318 4.72388 73.143 3.84083 73.2216 3.91912C73.6427 4.36488 71.6945 4.44864 72.4591 4.73793C73.5383 4.71075 74.6033 4.68206 75.6659 4.65101C74.7975 4.43807 76.8403 3.31661 77.2003 3.84798C77.1386 3.21207 78.0844 3.40615 79.2206 3.77028C80.6355 4.22229 82.3555 4.9346 82.7795 4.67489C82.9392 4.57542 81.9052 3.86643 84.3138 4.20401C84.5744 4.24127 84.4733 4.66965 84.6107 4.63045C84.6937 4.60687 85.196 3.24626 85.7212 4.0019C85.9131 4.27717 84.6736 5.16966 87.3886 4.81783C86.3139 3.42968 91.1433 4.07033 92.027 4.40973C91.8495 4.22406 91.6717 4.03831 91.4943 3.85249C92.3713 4.35222 92.5268 3.87917 92.7234 3.90393C93.5169 4.00315 94.6081 4.47039 95.3419 4.41957C95.5601 4.40477 95.7218 4.33818 95.8583 4.25234C96.262 3.99934 96.4459 3.57997 97.1952 3.82065C96.9554 3.63346 96.7165 3.44609 96.4773 3.25856C97.1666 3.29607 97.8569 3.33214 98.5487 3.36684C96.9657 4.53389 98.8951 3.41628 99.0227 3.3889C99.2268 3.34383 98.9407 3.81652 99.282 3.75236C99.3172 3.74212 99.2584 3.30285 99.7854 3.2438C100.888 3.12125 100.725 3.67772 101.19 3.66208C101.233 3.65826 101.075 3.26504 101.877 3.1539C104.434 2.79728 101.87 3.45874 101.774 3.51512C101.647 3.58975 102.559 5.2306 100.374 4.68652C101.106 4.85944 101.195 5.59112 101.278 5.60771C101.351 5.62148 102.617 5.49045 102.687 5.46329C103.307 5.1998 102.745 4.71121 102.865 4.61857C102.962 4.54424 104.514 5.16044 104.838 3.64317C105.612 5.01475 104.443 4.91813 103.218 5.16081C103.044 5.45065 104.405 5.69549 104.477 5.69266C106.232 5.64552 105.231 4.52622 105.596 3.78518C105.787 3.39738 106.524 4.15873 105.836 3.15059C107.43 2.99975 106.478 3.61987 106.583 3.70513C106.742 3.83019 107.295 3.52096 107.367 3.55817C107.472 3.6133 107.122 3.97825 107.533 4.09216C107.601 4.10849 108.241 3.47935 107.387 3.21056C108.519 3.2663 108.413 2.7476 108.827 3.78693C109.555 1.77838 109.429 4.94519 109.741 5.04779C110.573 5.31797 110.29 3.765 110.331 3.68771C110.465 3.45573 111.039 3.4354 111.673 3.4548C112.393 3.47686 113.196 3.55049 113.498 3.42259C113.344 4.31588 112.284 3.83558 111.68 3.70854C111.52 3.67495 111.391 3.66603 111.318 3.7137C110.702 4.11443 111.207 4.23535 111.702 4.47194C112.142 4.68321 112.576 4.98675 112.186 5.66402C112.538 5.26619 112.891 4.86841 113.247 4.47067C113.943 5.36008 112.997 5.78108 114.803 5.40132C115.078 4.61002 113.523 5.55909 113.824 4.93366C113.998 4.56641 115.054 4.46081 115.068 4.26952C115.083 4.03903 114.137 4.33645 114.278 3.97904C114.581 3.20625 118.098 3.84672 115.448 4.32864C116.19 4.29691 116.606 5.80517 117.241 5.31743C117.653 5.00149 115.253 2.95733 118.788 3.26426C118.877 3.97895 117.383 3.50614 117.345 3.56196C117.292 3.64256 117.597 5.25338 117.646 5.33215C117.816 5.5891 121.394 4.65176 122.163 5.45452C121.853 4.52357 124.867 5.24701 125.187 4.95957C125.273 4.87985 124.94 4.31142 125.033 4.24964C125.611 3.88123 127.191 4.88555 127.912 4.9053C128.721 4.92751 128.614 4.43416 128.659 4.43464C129.019 4.45897 128.735 4.7968 128.955 4.79389C129.278 4.78885 131.541 4.84021 131.653 4.76998C131.686 4.74795 131.311 4.18554 131.807 4.07506C131.896 4.05604 131.837 4.72562 133.293 4.42793C135.046 4.07043 132.074 3.60183 132.797 2.89645C133.921 3.88868 133.894 2.89946 134.192 2.9756C134.26 2.99385 134.62 3.36107 135.111 3.59517C135.36 3.71768 135.644 3.80376 135.938 3.78431C135.66 3.84715 135.385 3.91005 135.113 3.973C134.772 4.04935 134.437 4.12578 134.106 4.20229C134.365 4.26523 134.733 4.26509 135.114 4.25854C135.591 4.25012 136.094 4.23093 136.372 4.324C136.611 4.40425 136.415 5.09617 136.938 5.07566C137.051 5.06762 137.483 3.38183 136.117 4.14252C136.007 3.5416 136.656 3.93071 136.96 3.75961C137.005 3.73296 137.188 2.72773 137.575 3.35085C137.671 3.50435 136.663 6.4371 139.264 4.30927C139.348 4.24072 139.055 3.87442 139.137 3.79815C139.192 3.74647 139.862 3.89339 139.934 3.8412C140.009 3.78517 139.687 3.3852 139.776 3.30617C140.233 2.89895 140.834 4.48684 139.894 4.36767C140.207 4.5634 140.523 4.75918 140.841 4.95502C140.499 3.758 141.337 4.61714 141.771 4.57966C144.568 4.34047 142.694 3.56387 143.175 3.16028C143.951 2.51249 143.36 4.56242 144.506 3.94579C144.612 3.88825 143.225 3.01871 145.934 3.50853C145.532 3.54252 145.138 3.57657 144.735 3.61068C144.969 4.76887 146.176 3.53067 146.272 3.51445C147.332 3.35537 146.617 3.77281 148.193 3.17668C148.334 3.12317 148.641 3.40917 148.943 3.26672C150.191 2.67984 147.298 2.90948 147.215 2.44073C147.181 2.21067 150.292 2.26995 150.401 2.37942C150.856 2.86343 148.988 2.59143 149.344 3.19218C149.474 3.40498 153.912 2.97179 154.802 3.20754C155.828 3.48122 156.287 5.05275 156.297 3.28807C156.584 5.02083 156.842 3.83952 156.973 3.85173C158.561 4.01554 158.565 4.03308 159.924 3.8707C160.226 3.83544 160.478 4.36171 160.585 4.27325C160.647 4.21982 160.533 3.65706 160.836 3.48436C161.256 3.24798 163.79 3.83432 163.972 4.14598C164.159 4.45749 162.906 4.27733 163.129 4.78925C164.037 4.84382 164.908 4.72032 165.827 4.77755C166.207 4.80286 166.01 5.15992 166.174 5.16765C166.24 5.17225 167.561 4.86228 167.503 4.73011C167.374 4.42235 163.318 4.61421 164.388 3.99185C164.596 3.87156 165.317 4.69858 165.206 3.69561C168.733 3.92975 172.278 4.1669 175.805 4.40904C175.899 4.41536 175.993 4.42167 176.086 4.42799C175.993 4.46033 175.9 4.48994 175.805 4.51699C173.795 5.10698 171.554 4.48569 169.47 4.54388C169.166 4.55121 168.163 4.45033 168.282 4.95758C170.137 5.09633 172.44 4.84311 174.226 5.18309C174.283 5.19433 174.071 5.64846 174.285 5.72177C174.563 5.81973 175.328 5.47455 175.8 5.34114C175.996 5.28835 176.147 5.26876 176.209 5.323C176.232 5.35 175.963 5.58044 175.797 5.84301C175.694 6.01268 175.633 6.19575 175.72 6.34597C175.745 6.39031 175.77 6.42823 175.793 6.46023C176.316 7.13706 176.483 5.16253 176.952 5.18998C177.345 5.21291 179.92 6.27894 180.57 5.62211C181.26 4.92136 178.667 5.19796 178.863 4.62246C180.627 4.05484 182.388 4.68861 184.062 4.63233C184.092 4.63077 183.839 4.17604 184.215 4.11635C184.857 4.01243 185.027 4.6558 185.339 4.76162C185.666 4.87411 186.881 4.79538 187.039 5.03122C187.059 5.06212 186.808 5.69567 186.77 5.71314C186.239 5.96951 186.071 5.14182 186.02 5.13067C185.841 5.09743 185.656 5.41185 185.498 5.39137C185.234 5.35722 185.086 5.06301 184.729 5.03362C184.489 5.01234 184.716 5.57663 184.483 5.54864C184.4 5.53605 183.474 4.24388 183.379 5.55314C183.341 5.9619 190.971 6.57838 191.746 6.26516C191.095 6.09797 190.43 5.93107 189.784 5.76494C191.108 6.1658 192.724 5.14394 192.815 6.69419C194.208 6.75152 195.718 6.81727 196.818 6.861C200.21 6.96961 203.623 7.0571 207.08 7.14349C207.951 7.27442 207.474 8.27014 208.902 7.97872C208.525 7.66217 208.166 7.34559 207.791 7.02901C208.525 7.2506 211.767 7.68075 212.294 7.47478C212.359 7.44779 212.459 6.54701 213.266 6.46858C213.991 6.39931 214.1 7.07398 214.487 7.20275C214.819 7.30899 215.171 7.13174 215.269 7.16888C215.343 7.19861 215.372 7.61122 215.551 7.68295C216.119 7.90473 215.657 6.74344 216.211 8.07694C216.077 8.12794 215.943 8.17895 215.811 8.22996C216.25 8.35789 216.818 8.66831 216.85 8.95013C216.886 8.94255 216.999 8.95809 217.035 8.9509C217.037 8.96697 217.036 8.98293 217.035 8.99874C216.998 9.00592 216.886 8.99042 216.85 8.99798C216.836 9.12194 216.706 9.23782 216.41 9.32687C216.239 9.37866 216.385 8.97928 216.258 8.98012C211.417 9.05821 215.023 9.7876 216.851 9.25992C216.886 9.25247 216.996 9.26774 217.032 9.26067C217.086 9.24557 217.139 9.22935 217.19 9.21194C217.632 9.80785 220.142 9.4693 220.225 9.58645C220.339 9.75629 219.907 10.2253 220.464 10.6384C220.58 10.726 223.945 10.4232 222.727 11.1991C222.477 11.3592 220.868 11.1751 220.479 11.1948C221.383 12.4566 223.538 10.6783 223.78 10.7264C224.75 10.9299 221.903 11.7972 224.092 11.9612C225.778 12.0872 224.203 11.2368 224.853 10.8849C225.216 10.6873 227.129 11.6263 227.089 10.4318C227.751 10.3104 227.359 10.9392 227.44 10.9854C227.516 11.026 228.831 10.6813 229.259 10.9384C229.311 10.9703 229.14 11.5891 229.193 11.6406C229.282 11.7161 230.249 11.647 230.565 11.5948L230.471 11.5936C230.514 11.5846 230.543 11.5761 230.549 11.5688C230.562 11.5528 230.517 11.4381 230.474 11.3034L230.57 11.3046C230.506 11.133 230.442 10.9292 230.516 10.8565C230.529 10.8439 230.55 10.8333 230.577 10.8245L230.478 10.8233C230.728 10.7269 231.677 10.8272 231.738 10.6849C231.821 10.4511 230.439 10.5972 230.676 9.99066C231.296 10.1494 232.364 9.74696 232.802 9.25823C232.694 9.39803 232.057 9.41665 231.84 9.36638C231.942 8.47718 233.313 8.49185 232.843 9.19549C233.143 8.81758 232.938 8.61656 233.108 8.25972C233.152 8.16936 233.58 8.1511 233.663 7.99701C233.674 7.96633 233.232 7.63015 233.321 7.44943C233.478 7.12307 234.789 7.1968 234.9 7.28245C235.204 7.52534 234.127 7.8192 234.04 8.19456C234.026 8.25226 234.939 8.98806 234.954 9.05302C235.007 9.7502 233.99 9.24771 234.107 9.87543C234.357 10.0081 234.609 10.1407 234.861 10.2733C233.882 10.9094 232.121 10.5805 231.68 11.3008C233.063 11.0913 234.577 11.1151 234.573 12.7437C234.572 13.4295 233.952 13.8314 233.976 14.0057C234.066 14.6297 234.929 13.952 234.962 13.9849C234.988 14.0229 235 14.06 235 14.096C235 14.096 235 14.096 235 14.096C234.999 14.4613 233.77 14.7243 233.71 14.8909C233.607 15.1872 234.151 16.4069 234.151 16.6766C234.131 16.7308 233.259 17.019 233.553 17.4899C233.849 17.9656 234.617 17.9761 234.644 18.0255C234.79 18.31 233.449 18.5692 233.411 18.7369C233.389 18.8219 234.107 19.344 234.129 19.494C234.146 19.6445 233.6 19.9728 233.384 20.4477C233.223 20.8005 233.691 21.0715 233.608 21.1267C233.549 21.1636 232.287 21.1558 232.226 21.2174C232.134 21.3089 232.427 21.7315 232.384 21.8369C232.323 21.9885 231.917 21.835 231.969 21.9912C232.006 22.1083 233.587 23.565 233.578 23.9531C233.559 24.6158 231.879 23.0892 233.442 25.7056C233.452 25.7228 233.834 25.5372 233.845 25.5533C234.08 26.0344 232.856 26.774 234.353 26.6451C231.567 27.479 234.005 27.6411 233.593 28.7564C233.434 29.1853 232.349 29.3605 232.344 29.4246C232.448 29.9688 232.795 29.5476 232.912 29.8144C232.977 29.9638 232.003 30.5368 232.221 30.9107C232.334 31.1037 233.367 31.0367 233.409 31.0741C233.816 31.4285 233.316 31.8096 233.405 32.0611C233.465 32.2298 234.086 32.2435 234.102 32.2738C234.129 32.337 233.284 33.0179 233.107 33.2571C232.972 33.4413 233.476 33.7305 233.382 33.8107C232.819 34.2909 231.612 33.0627 232.772 34.782C232.843 34.8874 233.281 34.8454 233.294 34.8664C233.565 35.3534 232.758 35.3946 232.611 35.7926C232.361 36.4788 233.527 36.0979 232.557 36.5791C233.284 37.0294 233.688 37.0108 234.529 36.8857C232.195 37.2342 231.346 39.0091 233.962 38.9673C233.135 38.9392 233.224 39.9421 232.976 39.9595C232.823 39.9694 231.603 38.9688 232.158 41.208C232.229 41.4879 232.97 41.1341 232.737 41.7057C230.952 41.5555 232.7 42.07 232.7 42.1453C232.685 42.8366 231.497 42.8683 230.174 42.7514C230.153 42.747 230.09 42.7547 230.07 42.7501C229.061 42.6395 227.925 42.4228 227.59 42.4908C226.755 42.6569 226.004 43.6892 225.82 43.6889C225.219 43.6842 225.723 43.1611 225.59 42.9661C225.457 42.7727 223.736 43.7686 223.649 43.7124C223.32 43.4867 223.662 42.8647 223.627 42.8328C223.22 42.4465 220.909 42.9164 220.26 42.7654C220.279 43.171 221.577 43.2143 220.759 43.8584C219.808 44.6093 219.77 42.8218 219.745 42.7429C218.737 42.738 217.728 42.7328 216.716 42.7272L216.89 42.7279C213.573 42.7447 210.276 42.7627 206.961 42.7795C207.018 43.7303 209.837 43.0097 209.902 43.1347C210.281 43.8755 205.51 43.8678 204.921 43.532C205.365 43.7371 205.81 43.9421 206.259 44.147C205.5 45.2409 203.81 43.822 202.705 44.3043C202.345 44.4606 203.034 44.8827 203.019 44.9115C202.617 45.336 201.974 45.0086 202.454 44.4388C201.471 44.9845 201.617 44.3819 200.86 44.3358C200.82 44.3338 201.146 44.7754 200.546 44.9574C200.265 45.0425 198.766 45.0401 198.563 45.4249C198.479 45.5871 199.236 47.3001 199.335 45.8281C200.964 46.5496 199.858 45.1585 200.491 45.1936C200.587 45.2013 200.365 46.0234 201.955 45.6379C201.652 47.1199 199.818 46.0091 199.502 46.1874C198.849 46.5551 201.531 47.3259 202.016 46.1703C201.787 47.3265 202.205 46.3263 202.8 46.374C203.444 46.4256 203.169 46.7699 203.515 46.7717C204.473 46.7801 204.08 45.9639 204.866 46.6993C204.094 44.4217 206.215 46.3978 206.831 46.9937C205.827 47.1104 204.825 47.2269 203.82 47.3429C203.879 47.4625 203.934 47.5821 203.992 47.7017C203.727 47.6849 203.462 47.668 203.196 47.6511C203.238 47.5364 203.281 47.4218 203.324 47.3071C201.951 48.0526 201.617 47.2141 201.504 47.2047C200.063 47.1063 198.381 47.1091 196.915 47.0989C196.807 47.0982 196.788 47.2781 196.605 47.391C196.376 47.5075 195.924 47.5515 195.078 47.2425C194.555 47.0489 195.057 46.4762 194.466 46.5543C193.717 48.119 193.751 46.862 193.543 46.8568C192.935 46.8472 192.566 47.2319 192.508 47.2351C191.758 47.2842 190.689 47.203 189.875 47.2499C189.859 47.2556 190.278 47.7458 189.748 47.5951C189.573 47.5414 187.926 45.4518 186.472 46.1096C186.842 46.2533 187.23 46.3974 187.597 46.5414C187.152 46.3401 184.039 46.8282 184.793 47.3896C185.245 47.7323 186.411 46.4126 186.522 47.6954C185.492 47.2975 179.744 47.8204 179.295 47.5213C179.232 47.4783 179.622 47.0654 179.536 47.0116C179.459 46.9704 178.155 47.0596 177.974 46.8988C177.868 46.8032 178.459 46.5524 178.412 46.4023C178.363 46.295 176.721 46.1061 176.626 46.6268C177.03 46.4201 178.169 46.6103 177.571 47.0456C177.495 47.0997 177.098 46.7609 177.002 46.8296C176.126 47.4624 178.728 47.3261 179.116 47.3345C178.14 47.7266 176.851 47.5942 175.553 47.5185C174.709 47.4684 173.845 47.443 173.097 47.6117C172.339 47.174 174.227 46.9541 173.367 46.5902C171.583 45.8362 172.89 47.1875 172.835 47.2425C172.381 47.6776 170.882 45.3252 170.875 47.1102C170.231 46.8386 170.43 46.6144 169.522 46.8439C169.641 46.9681 169.761 47.0922 169.88 47.2164C168.856 48.2456 166.718 45.6286 166.879 45.4303C167.313 44.8994 168.435 45.7346 168.529 45.7151C168.668 45.6861 169.072 43.8764 170.616 45.5029C171.258 44.2909 168.159 44.6721 169.572 43.8503C168.622 43.9816 164.703 43.1211 164.142 43.6527C164.075 43.7221 164.381 44.9335 163.418 44.3143C162.961 44.0194 164.064 44.009 163.857 43.7325C163.216 42.8825 154.416 43.4017 152.747 43.4462C152.639 43.4474 152.679 43.0718 152.572 43.0751C152.245 43.0851 151.051 43.6439 150.467 43.4706C151.679 44.167 149.323 44.219 148.725 44.1424C147.814 44.0255 147.874 43.3645 147.48 43.2238C145.967 42.6815 143.621 44.2524 142.448 42.7867C142.511 44.2428 140.415 42.0755 139.461 42.0652C138.72 42.0565 137.632 43.0234 138.646 43.6076C137.527 43.5523 136.357 43.7537 135.29 43.8693C135.125 43.8868 134.963 43.9023 134.805 43.9147C134.606 43.9305 134.877 43.4985 134.539 43.5391C134.508 43.5459 134.469 43.9681 134.18 44.0134C131.778 44.3945 132.94 43.4916 132.49 43.2305C132.241 43.0844 132.055 43.0122 131.917 42.989C133.24 42.902 134.746 42.7425 135.285 42.7135C135.315 42.7118 135.342 42.7105 135.366 42.7098C135.345 42.6584 135.318 42.6132 135.284 42.5738C134.687 41.899 132.219 42.891 131.457 42.6601C131.43 42.6512 131.522 42.1369 131.494 42.1335C131.493 42.1335 131.493 42.1335 131.492 42.1335C131.196 42.0958 129.283 42.3009 129.683 42.9102C129.789 43.0729 130.67 43.0651 131.709 43.0023C131.427 43.1192 131.642 43.6931 131.592 43.718C130.994 44.0063 129.512 43.4566 128.987 43.3859C128.867 43.3704 128.879 43.739 128.86 43.74C128.385 43.6608 128.572 42.6063 128.091 43.6966C127.215 42.3932 129.709 43.4863 129.523 42.6364C129.381 41.978 123.887 42.3934 123.926 43.4304C123.905 43.3202 123.83 43.1841 123.674 43.0304C123.323 42.6884 121.805 42.8219 121.548 43.0174C121.504 43.0557 121.54 44.0582 121.485 44.0685C121.352 44.0934 119.479 43.3429 118.802 43.9516C119.18 44.0839 119.555 44.2166 119.931 44.3495C117.68 44.4057 118.032 44.6985 118.79 44.981C118.828 44.9829 118.865 45.0201 118.901 45.0234C119.488 45.2323 120.235 45.4309 120.249 45.5098C120.298 45.8083 116.486 46.0632 117.196 45.1167C117.3 44.9865 119.073 45.3602 118.184 44.7164C118.027 44.6034 116.896 44.8201 116.833 44.7487C116.424 44.2714 118.889 43.5664 118.573 42.8827C117.984 43.5543 117.202 43.226 116.512 43.4134C116.198 43.4982 116.132 44.003 116.094 44.0135C115.515 44.1598 115.828 43.6243 115.633 43.6425C115.531 43.6541 114.405 44.8071 114.582 43.2548C113.577 43.585 113.027 43.8229 112.814 43.9902C112.661 44.11 112.68 44.1938 112.821 44.2503C113.227 44.4118 114.629 44.3501 115.89 44.2701C115.171 44.8521 113.717 44.6196 113.063 44.7689C112.916 44.8031 112.923 45.0202 112.848 45.2042C112.805 45.3114 112.734 45.4074 112.588 45.4495C111.781 45.6849 107.818 45.2036 106.769 45.09C107.401 44.8909 107.2 44.3337 106.71 44.3855C106.218 44.4374 106.651 45.1769 106.558 45.2601C106.458 45.3468 104.131 45.0505 103.744 45.1558C105.488 44.8427 105.079 44.2918 103.593 44.2678C103.804 44.1014 104.015 43.935 104.226 43.7684C103.362 44.0165 101.507 43.2001 101.007 43.4637C100.928 43.5061 101.222 43.972 101.178 43.9958C100.738 44.2053 99.2169 43.7506 99.1489 43.9122C99.0916 44.0471 99.7434 44.4317 99.5072 44.6302C99.4581 44.672 98.8245 44.0452 98.2129 44.2106C97.9857 44.2715 98.1293 44.7154 98.0722 44.742C97.5961 44.963 97.8682 44.2088 96.9948 44.3404C96.7474 44.3778 96.5278 44.5102 96.2967 44.6457C95.9306 44.862 95.5412 45.0862 94.9957 44.9413C95.7629 45.1811 96.1608 45.331 96.3052 45.4284C96.3981 45.4905 96.3881 45.5312 96.3066 45.5595C96.0321 45.656 94.94 45.6096 94.2505 45.7758C94.0562 45.8222 94.2282 46.6313 93.0632 46.244C95.5266 44.7647 92.3536 45.4758 91.7068 45.4605C91.6712 45.4557 91.6571 44.922 91.3396 44.9144C91.3128 44.9149 91.3524 45.2756 91.0574 45.304C88.2605 45.5697 90.0487 45.1589 89.5173 44.804C89.2912 44.6529 87.9337 45.1623 87.5679 45.1736C87.4839 45.1747 87.5233 44.8 87.1983 44.814C86.6236 44.8395 86.1071 45.2368 85.7275 45.2669C85.6834 45.2685 85.6834 44.6773 84.9642 44.8656C84.7615 44.9182 84.5337 45.127 84.8199 45.2986C85.7704 45.8632 87.5803 44.9008 88.6579 45.459C89.6414 45.9685 86.5392 46.013 86.3786 46.014C86.3194 46.0156 86.9256 45.7239 86.311 45.6638C85.7865 45.6138 84.8222 46.6311 84.0408 46.4038C83.9815 46.387 83.3616 45.5169 83.3914 45.4665C83.4171 45.4299 84.3776 45.2478 84.2397 44.9963C84.2234 44.9677 83.6138 44.9697 83.5359 44.7826C83.4405 44.5548 83.1926 42.3238 83.0639 42.2669C82.733 42.1264 82.9453 42.6364 82.73 42.5994C82.2685 42.5218 80.6737 41.8478 80.6136 42.6196C80.8787 42.6682 81.1423 42.7166 81.4066 42.7648C79.9329 42.8303 80.557 43.1649 80.347 43.3078C80.1215 43.4622 80.1897 42.7838 79.695 42.7146C79.6464 42.7078 79.2065 42.7275 78.7378 42.7762C78.1494 42.8368 77.5154 42.9417 77.5338 43.1C78.6956 42.6625 78.256 43.4956 78.3093 43.5114C78.4305 43.546 78.5753 43.3894 78.7318 43.2626C78.8327 43.1793 78.9385 43.1088 79.0458 43.1138C80.9475 43.2093 79.0201 43.9305 79.4671 44.1267C79.6216 44.1928 79.9338 43.7943 79.9991 43.8156C80.2117 43.8845 80.2105 44.4108 80.3524 44.3697C80.6849 44.2743 80.3056 43.5256 80.3324 43.4871C80.633 43.0244 81.7899 43.6151 81.058 44.4186C81.4907 44.7147 81.5491 43.7303 81.8903 44.127C82.568 44.9124 81.5435 44.7036 81.2653 44.8303C80.3003 45.2705 79.9925 44.9343 78.7101 45.0085C78.6595 45.0114 78.6075 45.0149 78.5541 45.0191C78.043 45.0583 77.4278 45.5281 77.1916 45.5508C77.0389 45.5655 75.6614 43.8789 75.5739 46.4825C75.0288 46.2213 74.2051 44.4894 73.6428 44.557C73.1368 44.6189 73.2811 45.5434 73.2327 45.5781C73.1577 45.6327 72.5527 45.548 72.3448 45.674C72.1004 45.8228 72.216 46.1771 71.83 46.3125C70.8783 46.6484 70.924 45.7083 70.8279 45.6451C69.7264 44.9147 70.1852 46.2629 69.9374 46.3649C69.7735 46.4328 68.0456 46.1467 66.9813 46.1133C66.4828 46.0991 66.0739 46.1197 65.8729 46.2109C66.1658 46.0277 66.46 45.8443 66.7559 45.6604C66.2405 45.0656 65.6787 46.0124 65.6876 44.9602C65.5506 46.657 64.5143 45.501 64.2026 45.5382C64.0791 45.5537 64.0828 45.8433 63.9277 45.8525C63.3223 45.8906 61.9866 45.6306 61.6658 45.7703C60.2661 46.3715 63.7886 47.501 64.0899 47.57C63.5047 47.5396 60.3392 47.8499 61.7726 48.6984C61.9938 48.8294 62.4093 48.0781 62.5382 48.0512C63.4037 47.8744 62.7114 48.5406 62.777 48.6069C62.8903 48.714 63.4724 48.0679 63.6232 48.1495C63.6737 48.1757 63.3335 48.7856 64.1666 48.8161C63.7349 49.4058 61.4398 48.8677 61.1453 49.0017C61.0396 49.0497 61.67 50.3412 59.7634 49.0585C59.7833 49.1776 59.8032 49.2966 59.8231 49.4157C58.7484 49.4416 57.6849 49.469 56.6267 49.4987C56.7462 49.2275 57.3505 48.6895 56.6003 48.7923C56.1678 48.852 56.4759 49.4664 56.436 49.4834C56.3213 49.5313 55.6348 49.5359 54.6957 49.5228C52.462 49.489 48.8193 49.3697 47.8995 49.4144C47.4513 49.4335 46.2069 49.9182 46.1132 49.9274C45.5462 49.9738 43.556 49.6569 43.1635 49.7287C42.9176 49.774 43.1538 50.2819 42.9338 50.259C42.7294 50.237 42.9388 49.7442 42.8781 49.7239C42.3614 49.543 38.6037 50.2283 37.7526 49.7906C38.2708 49.9143 40.9631 48.8945 40.9139 48.5507C40.9019 48.5031 40.2313 48.1362 40.0985 48.3206C39.8642 47.8974 39.1144 49.205 38.696 48.9581C38.6484 48.9302 38.8208 48.1989 38.0779 48.0815C37.8226 48.0415 37.1746 48.6225 36.5062 48.0059C36.4696 48.0189 36.4268 48.0302 36.3786 48.04C35.0216 48.2843 29.7944 47.5873 29.4494 48.3468C29.436 48.3885 30.2393 48.6359 29.7102 48.9711C29.015 49.4163 29.6093 47.9638 28.781 47.8622C28.6544 47.8467 26.3681 48.0533 26.2994 48.1442C25.6327 48.9683 27.634 49.2413 27.6082 49.3357C27.546 49.5733 25.8897 49.7606 25.8256 49.7068C25.7591 49.6507 27.076 48.5468 25.4724 48.9954C25.6592 49.1179 25.8506 49.2404 26.0358 49.363C25.2868 49.632 25.1939 48.8956 25.0113 48.8555C24.5084 48.7418 23.9782 49.6402 23.2665 48.8602C23.1783 48.768 23.0866 48.6523 22.991 48.5087C22.7522 48.1486 23.1151 47.7279 23.0853 47.6737C22.796 47.1878 22.4915 48.5232 22.0412 47.551C22.0043 47.4789 22.9607 46.8511 21.2557 46.9128C21.3767 47.003 21.4987 47.0931 21.6197 47.1834C21.3946 47.4025 19.6412 47.598 19.3883 47.5587C18.6696 47.4419 19.2679 46.737 18.5473 46.8478C19.064 47.7596 16.8131 47.9717 16.8987 47.1645C16.6265 48.1841 14.5432 47.4808 13.4312 47.4712C12.7666 47.4716 11.2482 47.91 10.9847 47.8517C10.9645 47.8471 10.9461 47.8398 10.9291 47.83C10.7619 47.6953 10.801 47.0886 10.4436 46.941C10.3338 46.8959 9.17383 47.3839 8.17318 46.6582C7.98347 46.5185 7.58168 45.3469 7.95323 45.0608C8.58395 44.5713 9.7465 45.5266 9.7444 44.8377C9.73315 44.1007 8.14278 44.5167 7.71567 44.4144C5.74955 43.9412 6.89952 43.1743 6.85301 42.9363C6.73051 42.3582 5.65105 42.3603 5.6086 42.3078C5.42506 42.0749 6.19706 41.6303 6.2117 41.2788C6.23491 40.8212 5.20723 39.9795 5.44552 39.8287C5.7843 39.6145 6.73199 40.3173 6.79036 40.2852C7.58603 39.8525 6.52383 38.7791 6.23105 38.255C6.14317 38.0938 6.50644 37.8363 6.43247 37.7883C5.30225 37.06 6.16987 39.2714 5.41356 39.1133C4.74127 38.9724 5.61871 38.2903 5.59604 38.2516C5.56093 38.2089 4.75221 38.1589 4.6315 37.9111C4.56874 37.7871 6.69083 36.4663 6.61459 35.8587C5.94226 35.9825 5.26983 36.1061 4.59586 36.2295C4.55946 35.4384 5.50672 36.0346 5.61337 35.9546C5.81661 35.7941 5.2595 35.3857 5.28877 35.1362C5.3016 34.9774 5.97401 34.4201 5.37907 34.1774C5.18163 34.0936 4.73755 34.6414 4.006 34.0639C6.60538 33.3799 4.81372 32.9085 4.74687 32.6274C4.67341 32.3463 5.9186 31.7059 4.41974 31.7999C4.37918 30.2607 4.45781 31.3142 4.88857 31.0502C5.41273 30.7257 4.22021 30.2013 6.11743 30.6139C6.01819 29.8921 4.48716 29.9202 4.40845 29.8615C4.33963 29.8083 4.68269 29.4592 4.56392 29.3374C3.1525 27.924 4.12543 28.5744 3.72466 27.6794C3.68952 27.5995 2.33878 27.2491 3.37233 27.1356C5.2554 26.9292 6.02569 27.9611 6.37431 25.784C5.00386 24.8159 3.28964 26.1982 2.87156 26.2156C2.22437 26.2399 2.89842 25.8053 2.82229 25.6794C2.79391 25.6386 2.23689 25.6667 2.2315 25.6313C1.85717 23.9611 4.71113 25.6421 5.62199 25.366C5.38375 25.1132 5.14143 24.8603 4.90594 24.6075C5.23239 24.6024 5.56435 24.5974 5.89369 24.5924C4.33144 24.068 5.84342 24.402 6.25344 23.0602C6.34352 22.7587 5.30642 23.2627 6.49394 22.4386C5.62966 22.2316 5.91057 21.9604 5.11965 22.3284C5.15063 21.7888 6.9232 21.2057 7.62359 20.9385C5.17453 20.2957 6.54531 22.2974 4.43523 21.2173C4.02844 21.8801 5.04877 21.7653 4.96388 21.8744C4.65676 22.2668 3.97694 21.6262 3.11048 23.0037C2.97021 23.2299 3.538 23.9417 2.68226 23.8944C2.58937 23.8882 2.04829 23.279 2.05885 23.2357C2.13598 22.7664 2.68087 22.9512 2.7017 22.7551C2.72994 22.5696 2.11942 22.6719 2.1189 22.6204C2.10981 22.0309 2.62532 22.403 2.55344 22.2174C2.39315 21.8136 0.249344 20.5119 3.07141 20.9272C0.713749 21.5569 2.75754 21.5733 3.68104 21.3315C3.91042 21.2708 3.98378 20.9199 4.31245 20.8027C4.74321 20.651 5.24047 20.8275 5.4636 20.7662C5.70341 20.6986 4.36445 19.8465 6.31586 20.1238C5.33166 19.2816 3.56055 20.1372 2.59138 19.5408C0.634971 18.3359 3.99006 18.136 4.33857 18.0273C4.43131 17.9979 4.12944 17.5178 4.19153 17.4896C4.29588 17.4466 6.18654 17.6948 6.38231 17.3041C6.57533 16.9139 5.68587 17.3119 5.63245 16.9012C5.59978 16.6248 7.8936 16.1689 6.65705 15.9621C5.81009 15.8205 4.21138 16.9056 3.96592 15.7094C5.22504 15.63 6.48311 15.55 7.73924 15.4694C7.05846 15.0059 6.37745 14.5423 5.6969 14.0785C7.10898 13.9556 8.31845 14.4852 9.66783 13.8546C6.47523 12.3559 10.7268 12.7095 10.7775 12.5328C10.7904 12.4272 9.5486 11.2302 9.3438 11.0115C9.82418 10.8251 10.7164 10.6864 11.4323 10.474C12.0958 10.1811 12.5678 9.74636 11.7529 8.91049C11.9914 9.24197 12.6473 8.4234 12.6399 8.36152C12.5479 7.83991 11.631 8.02461 11.4685 7.7888C11.3999 7.73567 11.3826 7.66216 11.442 7.55566C11.452 7.53774 11.4621 7.52097 11.4723 7.50528C11.6951 6.93279 12.0119 7.79933 12.4154 7.72412C14.6762 7.30085 13.9058 3.9543 16.6386 4.38152C16.5777 4.26426 16.5172 4.14699 16.457 4.02969C18.1424 4.0665 19.9709 4.09491 21.8282 4.14088C23.3568 4.17793 24.7291 4.22808 26.1365 4.2751C27.3335 3.21681 30.5408 2.50539 32.1262 2.57402C32.443 2.58737 34.0257 3.08102 34.1436 3.17196C34.3677 3.34656 33.1676 3.44999 33.7208 3.77353C33.7808 3.80605 34.4466 3.85906 35.0915 3.83657C35.8393 3.81082 36.5433 3.71026 36.4291 3.4208C36.1644 3.37333 35.4478 3.56656 35.084 3.57925C35.003 3.58205 34.9417 3.57367 34.9107 3.54773C34.7246 3.3892 34.8052 3.27299 35.0726 3.18721C36.5906 2.743 42.7111 3.1557 43.0468 2.84143C42.8543 2.65572 42.6607 2.47013 42.4669 2.28468C43.0173 2.37363 43.5641 2.46363 44.1102 2.55453ZM21.1506 49.2005C20.8783 49.7873 20.1086 49.385 19.6591 49.5652C19.0458 49.8169 18.0232 52.0783 18.4104 49.8377C19.3593 49.6235 20.2663 49.4101 21.1506 49.2005ZM34.6328 49.6695C33.9867 49.3784 34.4492 48.1232 34.9787 48.6244C35.0392 48.6814 35.4985 50.0614 34.6328 49.6695ZM27.9946 49.2625C28.0228 49.2453 28.5647 49.2637 28.5855 49.2826C29.086 49.7678 27.4434 49.71 27.9946 49.2625ZM58.7368 48.4447C58.0585 48.4845 58.526 49.6228 58.956 49.1671C58.9826 49.1382 58.7817 48.4429 58.7368 48.4447ZM58.2559 48.405C57.7495 47.3838 56.6584 49.4122 57.4995 49.2218C57.5801 49.2025 58.2782 48.4546 58.2559 48.405ZM32.3634 49.2396C32.4225 48.8504 33.08 49.0193 33.3619 49.1041C33.3636 49.4578 32.6329 49.1888 32.3634 49.2396ZM48.0198 48.9246C48.0467 48.6193 45.8816 48.6271 45.736 49.0294C46.0753 48.8587 47.992 49.1974 48.0198 48.9246ZM53.6184 48.5535C53.5653 48.5001 52.8057 48.57 52.8253 48.839C53.1888 49.1962 53.8656 48.7953 53.6184 48.5535ZM64.9666 48.7934C65.013 48.7265 64.4349 47.0059 65.8568 48.158C66.0665 48.3266 65.2988 48.7595 65.3736 48.8222C65.5288 48.9448 65.6531 49.0028 65.7538 49.0146C65.0734 49.1441 64.3847 49.1965 64.3208 49.0915C64.0182 48.5953 64.9449 48.8213 64.9666 48.7934ZM70.9801 47.6347C71.1185 47.3588 71.972 47.5259 72.1657 47.6446C72.1992 47.6669 72.0362 48.3968 72.4266 48.35C72.738 48.311 72.2878 47.551 72.8932 47.6833C73.5051 47.8161 72.6746 48.3348 72.7267 48.374C72.7959 48.4256 73.7576 48.1072 73.7181 48.543C73.69 48.8661 72.6731 48.6274 72.4215 48.6909C72.0974 48.7726 72.4755 49.3194 71.9418 49.1926C71.6051 49.1133 71.8127 48.1698 71.7425 48.1205C71.6821 48.0807 70.5017 48.6011 70.9818 47.6378C70.9812 47.6368 70.9806 47.6357 70.9801 47.6347ZM65.9375 48.976C65.8856 49.0072 65.826 49.0231 65.7538 49.0146C65.8155 49.0029 65.8764 48.989 65.9375 48.976ZM22.8413 48.7232C23.1543 49.005 22.2674 49.4099 21.9074 49.0403C21.8931 48.7316 22.7909 48.679 22.8413 48.7232ZM66.5827 48.2152C66.7499 48.257 66.8696 48.3003 66.948 48.3444C67.0902 48.4427 67.0664 48.5459 66.9435 48.6446C66.751 48.7695 66.3573 48.8864 65.9375 48.976C66.2262 48.8027 66.2433 48.1304 66.5827 48.2152ZM40.0985 48.3206C40.1367 48.3908 40.1618 48.5007 40.167 48.6817C40.0667 48.4849 40.0558 48.3787 40.0985 48.3206ZM42.1892 48.624C42.9076 48.068 41.4415 48.0997 41.4556 48.4948C41.4609 48.6436 42.1601 48.646 42.1892 48.624ZM59.6066 48.5167C59.5383 48.4613 60.6415 46.819 59.066 48.0356C59.8871 48.2491 59.013 48.4122 59.0225 48.5583C59.046 48.9778 60.4449 48.6046 60.7528 48.7927C61.0114 48.0482 59.8285 48.6991 59.6084 48.5167C59.6078 48.5167 59.6072 48.5167 59.6066 48.5167ZM82.1099 48.2085C81.9099 48.6463 81.2889 48.4995 80.8676 48.4695C81.0679 48.0321 81.6911 48.1792 82.1099 48.2085ZM189.237 47.7288C186.46 48.0995 186.136 46.307 188.654 47.0452C188.703 47.0606 189.406 47.5496 189.237 47.7288ZM165.346 47.0934C165.085 46.3126 165.96 46.1903 166.53 46.5146C166.66 46.5875 167.138 47.3794 166.588 47.5317C166.606 46.5864 165.767 46.2222 165.346 47.0934ZM67.1303 47.7241C67.3832 47.2077 68.1796 47.5929 68.6205 47.6803C68.3413 48.1028 67.4774 47.8922 67.1303 47.7241ZM180.138 46.7021C179.849 46.6408 179.643 47.3178 179.694 47.3747C179.921 47.6353 180.464 47.0909 180.138 46.7021ZM64.2713 47.5918C64.2366 47.2804 65.4113 47.0046 65.4832 47.7742C65.2288 47.7141 64.2953 47.7875 64.2713 47.5918ZM81.3196 47.9683C81.1406 47.8087 82.0769 47.5342 82.3589 47.6931C82.3335 48.0238 81.4363 48.0722 81.3196 47.9683ZM175.409 46.9006C175.153 46.8401 174.482 46.8184 174.413 47.0923C174.314 47.4346 175.294 47.3233 175.409 46.9006ZM224.672 46.6072C224.706 46.7307 223.674 47.6102 223.219 47.3816C222.359 46.9444 224.639 46.5199 224.672 46.6072ZM182.916 46.3755C183.731 47.0284 182.827 46.395 182.854 47.0749C183.401 47.1042 184.791 47.1514 183.848 46.474C183.661 46.3429 183.174 46.4219 182.916 46.3755ZM182.154 46.1414C182.066 46.3608 181.46 47.0496 181.978 47.0043C182.217 46.9823 182.6 46.2146 182.154 46.1414ZM218.304 46.8546C217.555 46.2464 221.003 46.5998 221.1 46.7057C221.151 46.7618 221.185 46.8145 221.204 46.8591C221.332 46.6696 221.982 46.6407 222.054 47.1236C221.857 47.0821 221.328 47.12 221.264 47.066C221.238 47.0431 221.219 47.0215 221.205 46.9997C220.972 47.4165 218.448 46.9701 218.304 46.8546ZM212.822 46.2264C213.673 45.3378 213.833 46.8464 213.757 46.8951C212.822 47.5139 213.431 46.4003 213.402 46.3482C213.337 46.2616 212.677 46.7788 212.824 46.2264C212.823 46.2264 212.823 46.2264 212.822 46.2264ZM217.134 46.5955C217.167 46.5762 217.894 46.6296 217.92 46.6537C218.508 47.1662 216.466 47.0174 217.134 46.5955ZM75.6334 46.669C76.1622 46.8277 75.6305 47.3742 75.2836 47.1685C75.2542 47.1483 75.1709 46.5286 75.6334 46.669ZM181.745 46.2875C181.63 46.181 178.595 45.7621 178.78 46.6023C179.035 46.5045 182.471 46.9638 181.745 46.2875ZM159.025 45.9735C159.562 45.9814 158.975 46.7706 158.689 46.4752C158.582 46.3654 158.89 45.972 159.025 45.9735ZM62.7325 46.8409C62.1592 47.2628 62.3086 45.8084 62.7854 46.3185C62.804 46.3385 62.755 46.8244 62.7325 46.8409ZM163.315 46.4404C161.459 46.9139 161.908 44.4081 164.314 45.2624C164.238 45.3738 164.162 45.4852 164.086 45.5966C166.862 45.9824 164.278 45.7738 163.594 45.912C163.336 45.9645 163.551 46.3836 163.317 46.4434C163.316 46.4424 163.316 46.4414 163.315 46.4404ZM156.201 45.9193C154.42 44.1366 157.824 45.3018 158.801 45.0727C157.852 45.8052 156.62 45.6912 158.295 46.4473C155.843 46.5872 156.865 45.881 156.767 45.8218C156.652 45.7555 156.277 45.9959 156.201 45.9193ZM160.906 45.9187C161.007 45.8671 161.787 46.2316 162.066 46.1733C161.672 46.7799 160.221 46.2698 160.906 45.9187ZM206.854 46.6467C206.918 46.1704 207.075 45.8195 207.693 45.9968C207.511 46.2363 207.104 46.4426 206.854 46.6467ZM20.4848 46.7183C20.0758 46.7002 19.2355 46.555 19.5111 47.0449C19.5442 47.0861 20.4966 46.9989 20.4848 46.7183ZM172.939 45.8433C172.847 45.7841 170.523 45.7335 171.325 46.263C171.572 46.4225 173.679 46.3659 172.939 45.8433ZM184.905 45.991C184.712 45.984 183.929 46.066 183.911 46.1785C183.854 46.5673 184.817 46.3627 184.905 45.991ZM18.3497 46.317C18.2991 46.27 16.9572 46.4108 17.111 46.6357C17.4197 47.0614 18.5535 46.4792 18.3497 46.317ZM77.578 45.5833C77.6904 45.5673 77.8296 46.0866 77.868 46.0928C77.9073 46.0966 78.3117 46.0665 78.6968 46.084C79.1943 46.1068 79.6544 46.2111 79.2117 46.5824C79.18 46.6094 78.9779 46.6122 78.6904 46.6001C77.7933 46.5632 76.0585 46.379 75.7724 46.3243C75.6366 45.612 76.8757 46.3076 77.1825 46.2387C77.2375 46.2256 77.2782 45.632 77.577 45.5863C77.5773 45.5853 77.5777 45.5843 77.578 45.5833ZM210.06 46.1403C210.153 45.6887 212.482 45.3867 212.448 45.9338C211.653 46.0026 210.858 46.0715 210.06 46.1403ZM208.879 46.0671C208.379 45.7483 209.546 45.6412 209.887 45.7816C209.896 46.0854 208.948 46.1137 208.879 46.0671ZM180.548 44.2647C180.312 44.3733 181.028 45.0378 180.865 45.1645C180.763 45.2435 180.239 44.9924 180.078 45.1972C180.031 45.2623 180.55 45.8856 180.708 45.8602C180.926 45.8262 180.719 45.3372 180.956 45.3358C181.733 45.3316 182.433 45.6852 183.171 45.684C183.237 45.6829 182.729 45.334 183.291 45.3441C183.37 45.3449 183.906 45.8625 184.579 45.7933C186.096 44.2213 187.172 45.7917 189.069 45.244C189.011 45.0935 187.586 44.6746 187.508 44.659C185.915 44.3782 183.091 44.3215 181.41 44.3046C180.989 44.2998 181.191 44.6375 181.008 44.6483C180.862 44.6562 181.043 44.0354 180.548 44.2647ZM20.6885 46.366C20.4704 45.7526 19.7977 46.1732 19.3471 46.1595C19.5297 46.7131 20.2584 46.245 20.6885 46.366ZM198.333 45.5826C198.102 45.6059 197.387 45.4157 197.327 45.6024C197.249 45.8465 198.283 46.0049 198.333 45.5826ZM89.0088 45.839C89.0311 45.8221 89.5906 45.8552 89.6117 45.8747C90.112 46.3732 88.4335 46.2715 89.0088 45.839ZM102.468 45.8213C102.892 45.7356 103.315 45.5319 103.47 46.0327C103.197 45.9617 102.426 46.1735 102.468 45.8213ZM120.436 45.3476C120.337 44.6889 121.556 45.0935 121.788 45.1489C121.708 45.4436 120.502 45.8218 120.436 45.3476ZM206.761 44.5742C207.519 44.6124 207.367 43.6124 207.845 44.0645C207.924 44.1409 208.181 46.2232 207.343 45.4439C207.193 45.3038 207.78 44.8082 206.761 44.5742ZM164.706 45.2847C164.898 44.8485 165.504 44.9803 165.911 45.0168C165.82 45.341 164.992 45.2545 164.706 45.2847ZM15.8667 45.9118C15.4737 45.3116 13.5653 45.8167 14.0471 46.212C14.1301 46.2653 15.6247 45.8985 15.8667 45.9118ZM69.0032 45.7677C69.6794 45.2963 68.2966 45.1165 67.8745 45.5835C68.062 45.5557 68.9533 45.7985 69.0032 45.7677ZM116.217 45.0844C116.25 45.0635 116.951 45.0928 116.985 45.1159C117.573 45.6084 115.581 45.5286 116.217 45.0844ZM98.027 45.0986C98.2897 44.696 100.055 44.9902 100.456 45.3825C100.088 45.9749 97.7014 45.6032 98.027 45.0986ZM203.612 44.8606C204.161 44.8397 204.678 44.9625 205.18 45.1349C205.075 45.4715 203.676 45.1119 203.612 44.8606ZM118.79 44.981C118.828 44.9829 118.865 45.0201 118.901 45.0234C118.863 45.01 118.826 44.9945 118.79 44.981ZM191.187 44.5318C190.733 44.3922 190.824 45.0101 190.849 45.0294C191.191 45.234 191.685 44.6893 191.187 44.5318ZM20.1481 45.4716C19.9741 44.9217 19.2396 45.3834 18.7912 45.2693C18.9383 45.703 19.8074 45.5435 20.1481 45.4716ZM154.293 44.7764C153.724 44.1722 156.043 43.4754 156.532 43.8653C156.567 44.238 154.376 44.859 154.293 44.7764ZM67.0206 44.8958C67.0181 44.864 67.0113 44.8373 67.0007 44.8151C66.8371 44.5322 65.9619 44.9837 66.1608 45.178C66.2767 45.2942 66.864 45.2002 66.9981 44.995C67.0148 44.9642 67.0232 44.9311 67.0206 44.8958ZM157.698 44.122C157.916 43.9895 158.423 44.4208 158.243 44.6826C158.014 45.0181 157.642 44.16 157.698 44.122ZM177.241 43.8522C177.137 43.7848 175.872 44.2244 176.392 44.6723C176.754 44.9835 176.811 44.3538 176.899 44.3524C177.008 44.355 179.033 45.1397 177.241 43.8522ZM141.321 44.3944C141.798 44.226 142.39 44.4198 142.889 44.4072C142.688 44.677 141.523 44.7521 141.321 44.3944ZM70.6732 44.8521C70.5423 44.6725 67.3934 44.5003 69.1701 45.0802C69.2684 45.1128 71.0195 45.3935 70.6732 44.8521ZM206.761 44.5742C206.663 44.5693 206.551 44.5487 206.423 44.5057C206.551 44.5226 206.663 44.552 206.761 44.5742ZM198.025 44.5018C198.204 44.1852 197.308 44.0967 197.041 44.2642C196.957 44.6516 198.001 44.5462 198.025 44.5018ZM142.927 43.9645C143.216 43.7826 143.75 43.9759 144.106 43.9545C144.048 44.2495 143.052 44.264 142.927 43.9645ZM122.66 43.7731C123.233 43.939 123.929 43.8481 123.933 43.4872C123.946 43.5434 123.974 43.6028 124.02 43.6624C124.067 43.7212 124.674 43.5448 124.94 43.6645C126.529 44.3702 118.844 44.1899 123.279 43.0992C123.075 43.3237 122.866 43.5484 122.66 43.7731ZM95.6323 44.2775C95.2883 43.8418 94.3425 44.3999 94.5905 44.5708C94.7634 44.6883 95.9769 44.7166 95.6323 44.2775ZM108.617 43.7568C108.516 43.6812 107.614 44.0135 107.596 44.2453C108.127 44.4749 109.08 44.1084 108.617 43.7568ZM93.022 43.7827C92.8093 43.7176 92.5422 44.4272 92.5672 44.458C92.7843 44.7156 93.3811 44.1751 93.022 43.7827ZM205.176 42.6675C204.866 42.4649 203.883 42.9781 203.665 43.4459C203.625 43.3554 203.517 43.2375 203.321 43.096C203.322 43.096 203.323 43.096 203.323 43.096C203.065 42.9117 195.017 42.6848 200.415 43.5993C200.583 43.6284 200.354 43.2083 201.04 43.2832C201.085 43.2887 201.107 43.6315 201.248 43.6484C201.571 43.6852 203.282 43.9015 203.624 43.6253C203.627 43.6889 203.649 43.7493 203.696 43.8048C204.116 44.2991 205.418 42.8237 205.176 42.6675ZM110.412 43.6439C110.227 43.5221 109.654 43.6588 109.602 43.9629C109.893 44.1031 110.843 43.9283 110.412 43.6439ZM70.5998 43.609C70.2328 43.3522 69.2929 43.7974 69.5689 44.0506C69.7345 44.2062 71.022 43.9038 70.5998 43.609ZM104.598 43.96C106.766 44.2642 105.113 43.9185 105.433 43.4668C105.155 43.6313 104.877 43.7957 104.598 43.96ZM214.992 43.801C214.661 43.6993 215.046 42.8235 215.42 43.298C215.537 43.4487 215.177 43.8562 214.992 43.801ZM229.965 43.6495C229.889 43.415 229.954 43.294 230.062 43.2536C230.083 43.2583 230.148 43.2504 230.169 43.255C230.478 43.1602 231.089 43.4992 230.674 43.8689C230.654 43.882 230.339 43.7731 230.164 43.7031C230.143 43.6984 230.077 43.7065 230.055 43.7017C230.006 43.677 229.97 43.6572 229.965 43.6495ZM219.42 43.2336C219.184 43.76 219.036 43.8214 218.387 43.6849C219.35 43.5447 218.461 43.0693 219.42 43.2336ZM123.926 43.4304C123.93 43.4517 123.933 43.4675 123.933 43.4872C123.929 43.4678 123.927 43.4494 123.926 43.4304ZM90.9803 43.9284C90.7075 43.4815 89.9474 43.5156 90.1745 43.9659C90.1963 44.0077 90.8697 44.2596 90.9803 43.9284ZM203.665 43.4459C203.701 43.5261 203.683 43.5779 203.624 43.6253C203.621 43.5655 203.636 43.509 203.665 43.4459ZM95.0749 43.5409C95.0498 43.8754 96.2184 43.994 96.2645 43.954C96.273 43.9465 96.2811 43.9391 96.289 43.9318C96.5208 43.7175 96.4667 43.6064 96.2849 43.5525C95.9928 43.4653 95.368 43.5261 95.0749 43.5409ZM63.1261 42.9934C63.0661 43.0269 63.4276 43.8973 63.669 43.5645C63.8559 43.3063 63.349 42.8655 63.1261 42.9934ZM221.622 43.0373C221.979 43.0409 222.485 43.0448 222.576 43.4551C222.333 43.3902 221.612 43.3378 221.622 43.0373ZM229.458 43.0799C229.053 43.5558 228.111 43.5441 227.505 43.459C227.502 42.8249 229.088 43.2233 229.458 43.0799ZM206.153 42.9029C206.12 42.8772 205.221 42.6889 205.343 43.113C205.529 43.735 206.406 43.1334 206.153 42.9029ZM64.8918 43.4881C65.3093 43.2042 64.3785 42.2877 63.9345 42.9718C63.7049 43.3223 64.819 43.5358 64.8918 43.4881ZM88.6059 43.3445C88.064 43.5897 89.4067 44.0277 89.5945 43.5837C89.3446 43.5483 88.7982 43.2577 88.6059 43.3445ZM107.08 42.6464C105.354 41.4118 106.336 43.7208 106.632 43.5079C106.674 43.4775 107.122 42.6754 107.08 42.6464ZM10.8552 43.4231C10.7589 43.4928 10.8413 43.6393 10.9839 43.7632C11.2672 43.9509 11.7194 44.0836 11.8066 43.8288C11.8817 43.6134 11.3179 43.4092 10.9889 43.3968C10.9313 43.3943 10.884 43.4023 10.8552 43.4231ZM131.917 42.989C131.846 42.9935 131.777 42.9982 131.709 43.0023C131.76 42.9811 131.827 42.9738 131.917 42.989ZM83.7064 41.6133C84.8931 43.4271 84.7757 42.0335 84.8795 42.0418C85.1048 42.0624 85.6248 42.5533 86.0495 42.4746C85.5631 42.6762 85.0761 42.8774 84.5892 43.0781C84.9707 43.2124 88.3084 43.887 88.3796 43.5926C88.48 43.1757 87.429 43.3051 87.3986 43.2681C87.3547 43.2157 87.1932 42.0556 87.096 42.0113C86.9358 41.9415 84.1507 41.9057 83.7064 41.6133ZM103.532 42.9349C103.809 43.0665 103.899 43.524 104.023 43.4112C104.066 43.3726 104.063 42.9343 104.208 42.8175C103.983 42.8567 103.757 42.8959 103.532 42.9349ZM81.5485 43.2207C81.214 42.6824 82.7336 42.8987 82.7822 42.9587C83.0396 43.3238 81.8229 43.6609 81.5485 43.2207ZM94.491 43.1569C94.4347 43.1263 93.2566 42.967 93.2684 43.2639C93.5805 43.4891 95.1559 43.543 94.491 43.1569ZM104.39 42.7833C104.802 42.8247 105.587 43.2465 105.482 42.589C105.481 42.589 105.481 42.589 105.48 42.589C105.117 42.654 104.754 42.7187 104.39 42.7833ZM66.3404 42.121C65.5843 41.0565 65.9247 42.3912 66.6105 42.7417C66.8272 42.2733 66.4653 42.2942 66.3404 42.121ZM63.903 41.2899C63.6922 41.0966 61.541 41.2565 61.857 41.8197C61.9668 42.0204 63.2147 41.5479 63.2712 41.5875C63.3567 41.6463 62.947 42.2529 63.6127 42.1453C63.5785 41.9361 63.9739 41.3546 63.903 41.2899ZM65.7114 41.4368C64.9636 40.6233 64.7643 42.0936 65.3373 42.1088C65.5626 42.1157 65.8186 41.5541 65.7114 41.4368ZM68.707 41.6154C68.4486 41.4702 67.7604 41.2525 67.2992 41.7355C67.9085 41.7874 68.5463 41.8423 69.1921 41.8977C69.2726 41.6216 68.9327 41.7429 68.7052 41.6154C68.7058 41.6154 68.7064 41.6154 68.707 41.6154ZM234.131 39.3262C233.538 38.908 234.904 38.7481 234.96 38.8507C235.131 39.1917 234.397 39.513 234.131 39.3262ZM6.42903 29.9664C6.2687 29.7974 6.16819 29.2475 5.80445 29.5294C6.1603 29.9395 6.52012 30.3496 6.87431 30.7596C7.16867 29.8363 6.60867 30.1529 6.42903 29.9664ZM5.09468 26.5576C5.14565 26.5359 4.8896 25.1058 5.53505 26.0676C5.9737 26.7172 3.53266 27.3071 3.10328 26.6678C3.59517 26.3816 4.65031 26.7341 5.09468 26.5576ZM0.93131 20.3197C0.909425 20.2056 1.83559 20.0531 1.9389 20.1349C2.49857 20.5663 1.0769 20.9312 0.93131 20.3197ZM3.8735 20.6375C3.4474 20.354 4.4059 20.1901 4.68916 20.3538C4.71444 20.6196 3.94135 20.6789 3.8735 20.6375ZM228.246 18.6322C227.782 17.6582 227.343 19.7406 228.073 19.3274C228.108 19.308 228.265 18.6799 228.246 18.6322ZM1.85897 18.8953C2.28718 19.179 1.32499 19.3425 1.04129 19.1788C1.01632 18.9132 1.7942 18.8538 1.85897 18.8953ZM227.936 16.3201C227.315 15.6166 227.516 17.9595 227.591 18.0545C227.91 18.4299 229.031 17.5228 229.264 17.2974C227.59 17.6301 228.233 16.652 227.936 16.3201ZM225.041 17.6999C224.459 17.9447 225.935 18.4348 226.223 17.7848C225.936 17.8135 225.203 17.6291 225.041 17.6999ZM221.542 16.9197C221.237 16.8333 220.312 16.6245 220.156 16.9914C220.491 16.9277 221.413 17.2976 221.542 16.9197ZM220.851 15.8101C220.37 15.3054 220.24 16.7625 220.805 16.3331C220.827 16.3165 220.869 15.8381 220.851 15.8101ZM218.133 15.2595C217.823 14.6767 217.445 16.0854 217.96 16.1283C218.113 16.1384 218.166 15.3263 218.133 15.2595ZM227.175 13.7944C226.717 13.5412 226.118 14.5472 227.097 14.6671C226.749 14.8184 226.408 14.9699 226.061 15.1214C227.337 15.6995 227.259 14.2966 227.625 14.358C228.142 14.4454 228.091 15.6023 227.982 15.9646C228.32 15.4176 229.473 15.2985 230.507 15.221L230.436 15.2201C230.7 15.1956 230.955 15.1734 231.176 15.1446C230.956 15.0677 230.704 14.9763 230.44 14.879L230.513 14.8799C229.637 14.5875 228.639 14.2544 227.964 14.107C227.709 14.0499 227.455 14.3649 227.235 14.3274C226.886 14.2656 227.201 13.8114 227.177 13.7945C227.176 13.7945 227.176 13.7944 227.175 13.7944ZM214.426 15.2302C213.496 14.5745 214.079 15.992 214.612 15.7384C214.635 15.719 214.449 15.2463 214.426 15.2302ZM0.674703 14.5668C1.93444 15.1788 1.00463 15.9505 3.63638 14.798C2.52814 15.6256 3.5665 15.4044 3.34804 15.7418C3.17084 16.0086 2.53297 15.7755 2.89679 16.3241C2.37886 15.7256 0.396695 15.8558 0.0420852 15.7586C0.0455751 15.7586 0.0489507 15.7586 0.0522293 15.7586C-0.0978469 15.73 0.119196 15.3831 0.208453 15.0682C0.322801 14.7531 0.469702 14.4695 0.674703 14.5668ZM221.57 13.2111C221.276 11.4877 221.129 14.2179 220.527 12.7864C219.694 14.8504 222.781 12.8061 223.138 14.5584C219.804 14.327 225.325 16.3102 223.02 13.6721C224.932 14.6386 223.652 13.353 223.951 13.0219C224.272 12.6691 225.357 13.0645 225.305 12.4231C225.304 12.4231 225.304 12.4231 225.303 12.4231C224.638 12.4623 223.974 12.5016 223.309 12.5409C223.947 13.929 222.592 13.503 222.144 12.3726C221.953 12.6521 221.763 12.9317 221.57 13.2111ZM225.316 14.5408C225.254 14.5086 223.803 14.6902 223.896 14.9685C224.086 15.147 226.144 14.9522 225.316 14.5408ZM231.624 14.3004C231.27 14.2966 230.786 14.1577 230.446 14.2601L230.523 14.2611C230.365 14.3022 230.227 14.385 230.14 14.5361C230.253 14.5384 230.386 14.5531 230.518 14.5698L230.443 14.5689C230.884 14.6275 231.408 14.7105 231.624 14.3004ZM204.858 14.0813C204.198 14.5096 206.229 14.6348 205.642 14.1285C205.612 14.1047 204.894 14.0613 204.858 14.0813ZM220.068 13.4584C219.404 12.9266 219.702 14.6032 220.205 14.1714C220.234 14.1459 220.099 13.4826 220.068 13.4584ZM1.70088 14.3791C1.75226 13.9698 3.56371 14.2861 3.88121 14.2873C3.6966 14.6658 1.64185 14.8484 1.70088 14.3791ZM232.514 12.7689C231.811 11.7349 230.951 12.2564 230.461 12.6466L230.548 12.6477C230.306 12.813 230.138 12.9559 230.089 12.9441C229.927 12.9039 230.19 12.2629 230.154 12.245C230.061 12.2067 228.387 12.2414 228.311 12.286C228.254 12.3204 228.544 13.2293 228.201 13.5112C228.559 13.2389 229.591 13.2136 230.539 13.2396L230.455 13.2385C231.17 13.2548 231.829 13.3009 231.898 13.2547C232.014 13.1748 231.144 12.2211 232.512 12.7689C232.513 12.7689 232.513 12.7689 232.514 12.7689ZM229.691 12.7413C230.105 13.1263 228.928 13.1591 228.65 13.0164C228.029 12.696 229.632 12.695 229.691 12.7413ZM226.903 12.3623C226.775 12.2759 225.59 12.1882 225.491 12.6101C226.043 13.1632 227.198 12.5634 226.903 12.3623ZM213.69 12.3361C213.381 12.3906 212.546 12.0668 212.497 12.4363C212.808 12.382 213.638 12.7055 213.69 12.3361ZM7.92253 11.2485C7.41967 10.9322 8.59512 10.8228 8.93129 10.9758C8.94529 11.2224 7.96414 11.2757 7.92253 11.2485ZM219.984 9.92531C219.87 9.85113 218.271 9.93046 217.025 10.0405C216.991 10.0472 216.886 10.0327 216.852 10.0398C216.171 10.1058 215.622 10.1798 215.435 10.2403C215.62 10.3383 216.171 10.4039 216.852 10.4419C216.885 10.435 216.988 10.4492 217.021 10.4426C218.249 10.5259 219.815 10.5177 219.922 10.4302C219.97 10.3898 220.007 9.94318 219.984 9.92531ZM227.969 9.82399C228.32 9.28344 228.538 9.93822 228.581 9.94686C229.002 10.0343 229.91 9.92289 229.705 10.4444C228.931 10.2226 227.279 10.8977 227.969 9.82399ZM213.423 9.87494C212.178 10.0784 214.577 10.6484 214.26 10.0802C214.241 10.0459 213.554 9.85357 213.423 9.87494ZM220.397 9.77041C220.674 9.3335 224.349 9.74349 224.944 9.74913C224.407 10.5554 223.985 9.93602 223.274 9.9714C223.08 9.98189 223.129 10.3196 223.108 10.32C222.778 10.3328 223.029 9.94535 222.824 9.93772C222.695 9.93407 220.002 10.3864 220.397 9.77041ZM228.17 9.44913C228.34 9.19876 229.911 9.08012 230.605 9.09293L230.495 9.09154C230.63 9.09306 230.722 9.10173 230.738 9.11781C230.937 9.31351 230.787 9.43111 230.491 9.49622L230.598 9.49758C229.821 9.63212 228.293 9.5246 228.17 9.44913ZM220.066 9.04669C220.467 8.108 222.291 8.75468 221.035 9.21365C220.917 9.25537 220.416 8.84256 220.066 9.04669ZM213.556 8.97752C213.494 8.94988 212.188 8.76326 212.169 9.06308C212.351 9.17933 214.261 9.28137 213.556 8.97752ZM214.231 7.96275C214.2 7.96998 214.502 8.54701 213.898 8.47461C213.852 8.46779 213.74 7.81828 212.982 8.05709C212.826 8.10626 212.581 8.53635 212.599 8.56304C213.397 9.58148 215.82 7.6258 214.231 7.96275ZM228.218 8.9232C228.094 8.64773 228.409 7.83692 228.679 8.252C228.796 8.43125 228.57 8.91723 228.218 8.9232ZM209.422 8.71978C210.179 8.22521 207.805 8.13494 207.681 8.26137C207.758 8.56876 209.345 8.7681 209.422 8.71978ZM9.15767 7.45539C9.15708 7.45538 9.1565 7.45538 9.15591 7.45537C9.78599 7.57607 9.38926 7.98116 9.41821 7.99446C10.7632 8.61637 10.4151 7.68132 10.6286 7.57452C11.0181 7.37973 11.0076 8.15185 11.4639 8.12465C11.5161 8.11914 11.5795 8.08569 11.6584 8.01264C11.5777 8.07939 11.5138 8.13671 11.4631 8.18634C10.9485 8.49642 11.2203 8.50902 11.4576 8.59907C11.5271 8.64106 11.595 8.70011 11.6008 8.81672C11.6216 9.23825 11.5564 9.39232 11.4469 9.39351C10.9539 9.39457 9.84508 8.11252 9.37202 8.36172C9.28307 8.40815 9.9258 8.94122 9.69884 9.08715C8.95824 9.56004 6.72869 6.99308 9.15767 7.45539ZM228.894 8.18255C229.085 7.88905 230.025 7.96087 230.62 8.15367L230.504 8.15219C230.811 8.27081 230.992 8.43641 230.779 8.58875C230.761 8.60208 230.652 8.62337 230.499 8.64174L230.612 8.64317C229.918 8.70542 228.535 8.7329 228.894 8.18255ZM123.602 7.17638C124.149 6.75105 122.862 6.27889 122.629 6.60771C122.512 6.77133 123.365 7.36287 123.602 7.17638ZM114.571 5.57495C113.918 5.67691 113.281 7.43562 114.083 7.1437C114.168 7.11184 114.652 5.81433 114.571 5.57495ZM157.235 6.17318C156.566 5.54972 156.603 6.70557 157.096 6.6903C157.269 6.6851 157.256 6.19292 157.235 6.17318ZM131.516 6.35309C131.446 6.31316 130.668 6.39254 130.695 6.65803C130.99 6.81511 131.957 6.62704 131.516 6.35309ZM157.449 6.00915C157.05 6.21659 157.735 7.054 158.223 6.23821C157.976 6.30464 157.49 5.98796 157.449 6.00915ZM218.712 6.48032C218.406 6.91021 217.605 6.8219 217.055 6.86078C217.014 6.86884 216.888 6.85143 216.848 6.85992C216.793 6.86426 216.742 6.86977 216.693 6.87704C216.68 6.74415 216.741 6.65456 216.848 6.59462C216.889 6.58601 217.016 6.60366 217.057 6.59549C217.442 6.38224 218.409 6.56497 218.712 6.48032ZM117.377 6.2058C116.766 6.65321 118.109 6.97753 117.972 6.40785C117.957 6.37703 117.401 6.18674 117.377 6.2058ZM178.928 6.03763C178.484 6.40122 179.879 6.90449 179.499 6.25708C179.482 6.23065 178.954 6.01739 178.928 6.03763ZM185.099 6.30252C184.756 6.17515 183.315 6.19958 183.873 6.5627C183.969 6.61851 185.063 6.63802 185.099 6.30252ZM10.6723 7.13243C10.5403 6.63877 11.1375 6.62925 11.4831 6.70228C11.5405 6.72249 11.5875 6.74934 11.6076 6.77396C11.6204 6.7903 11.5619 6.94376 11.4778 7.09848C11.2199 7.37984 10.8196 7.66564 10.6723 7.13243ZM152.873 6.06682C152.525 6.14536 151.625 5.99414 151.465 6.32534C151.891 6.25716 152.986 6.72701 152.873 6.06682ZM120.223 6.14353C119.667 5.46737 118.74 5.55422 118.987 6.44607C120.008 6.36546 118.846 5.64218 120.223 6.14353ZM159.689 5.27578C159.411 5.22271 159.195 6.08336 159.226 6.124C159.528 6.51076 159.964 5.61156 159.689 5.27578ZM138.748 5.97646C138.734 5.60843 137.828 5.77801 137.951 6.01456C137.988 6.09394 138.766 6.27422 138.748 5.97646ZM206.853 6.26742C206.449 5.93195 207.683 5.60219 208.055 5.99386C208.233 6.55873 206.9 6.30598 206.853 6.26742ZM167.417 5.51637C167.463 4.97034 166.058 5.27376 166.61 5.72858C166.749 5.84237 167.402 5.69892 167.417 5.51637ZM180.819 4.93615C179.875 5.57951 183.822 6.07503 182.791 5.25473C182.725 5.19611 180.908 4.88165 180.819 4.93615ZM187.289 5.40498C187.131 5.33142 187.226 3.497 187.9 4.21273C187.988 4.30556 187.567 4.78575 187.638 4.89757C187.683 4.96116 189.138 5.23682 189.216 5.19517C189.29 5.14747 189.211 4.55819 189.286 4.49317C189.368 4.42042 190.265 4.94903 190.743 4.96149C191.639 4.98386 191.742 4.496 191.815 4.49541C192.024 4.49526 192.379 4.84825 192.814 4.85458C194.016 4.87006 195.726 4.76944 196.828 4.84797C197.923 4.90873 198.94 5.08869 199.666 5.54224C198.701 5.2692 197.77 5.35707 196.825 5.48685C196.443 5.55764 195.961 5.63668 195.455 5.6769C195.914 4.66225 193.258 6.42986 194.818 5.27524C194.131 5.51723 187.822 5.63122 187.291 5.405C187.291 5.40499 187.29 5.40499 187.289 5.40498ZM111.992 5.1309C112.121 4.91344 111.97 4.7932 111.71 4.75809C111.206 4.69031 110.297 4.94024 110.199 5.42086C110.399 5.49033 111.271 5.33486 111.723 5.22145C111.876 5.18292 111.98 5.14925 111.992 5.1309ZM121.517 3.38035C121.711 3.26898 121.873 2.04074 122.895 2.64627C122.896 2.64625 122.897 2.64624 122.898 2.64622C123.199 2.82309 122.863 3.12665 122.92 3.23216C122.945 3.27512 123.867 3.87091 123.109 3.98009C121.94 4.14835 122.982 3.07062 122.361 3.06734C122.281 3.06739 121.112 3.75009 121.184 3.89459C121.191 3.91141 121.544 3.76505 121.605 3.82454C121.831 4.04816 121.729 4.43243 121.761 4.4501C121.861 4.49453 123.715 3.81427 123.996 4.38008C124.084 4.5611 121.035 5.03207 120.914 4.94032C120.837 4.88157 120.85 3.81946 120.769 3.71648C120.726 3.665 119.506 4.08593 119.338 3.99195C119.291 3.96466 119.255 3.93495 119.228 3.91039C119.422 4.23487 118.302 4.23436 118.331 3.86324C118.344 3.71715 119.121 3.78528 119.146 3.81035C119.158 3.82088 119.169 3.83553 119.179 3.84558C119.011 3.44755 121.623 3.4171 121.047 2.83209C121.795 2.4927 120.953 3.70773 121.517 3.38035ZM125.127 2.67216C125.05 2.78479 124.974 2.89742 124.899 3.01006C126.208 2.71986 127.737 3.24102 129.236 3.22418C129.617 3.22073 129.171 2.54158 129.675 2.72398C130.084 2.87016 130.523 3.50026 130.308 3.64313C130.259 3.67869 129.432 3.27273 129.03 3.31868C127.817 3.45496 128.137 4.03796 128.065 4.05438C127.98 4.0718 127.228 3.66741 126.803 3.69044C125.758 3.74946 125.285 4.11424 123.845 3.66432C124.66 3.26711 124.21 2.43455 125.127 2.67216ZM173.327 3.88627C173.374 3.51789 174.224 3.84941 174.526 3.79696C174.482 4.16621 173.625 3.83362 173.327 3.88627ZM48.3443 3.52484C48.0746 4.12754 50.0705 4.29155 49.5481 3.78441C49.4319 3.67165 48.5958 3.5305 48.3443 3.52484ZM57.2808 4.00058C57.5496 3.83802 56.4864 3.38384 56.4797 3.85212C56.4791 4.00216 57.2469 4.02163 57.2808 4.00058ZM141.961 3.16771C142.011 3.14868 142.728 3.2825 142.749 3.31327C143.226 3.95485 140.866 3.58683 141.961 3.16771ZM67.7909 3.46767C67.706 3.49934 67.6499 3.52996 67.6172 3.5591C67.5752 3.60431 67.5793 3.64586 67.6153 3.68257C67.9049 3.90704 69.5365 3.96097 68.8529 3.54936C68.817 3.52372 67.8467 3.44883 67.7909 3.46767ZM71.6886 3.43524C71.4762 3.45196 70.5183 3.23448 70.5016 3.41877C70.4761 3.71604 71.5728 3.9431 71.6886 3.43524ZM159.882 2.99128C159.779 2.30946 161.049 2.829 161.49 2.7445C161.59 3.42677 160.326 2.90634 159.882 2.99128ZM151.87 2.47358C157.225 1.94406 156.042 3.39798 151.55 2.80522C151.544 2.36799 151.532 2.50704 151.87 2.47358ZM158.724 2.56665C158.528 3.00278 157.922 2.87188 157.511 2.83601C157.586 2.5326 158.428 2.64438 158.724 2.56665ZM45.9559 2.57901C46.3075 2.02759 47.8457 2.71398 47.5704 2.94044C47.5073 2.98868 45.8281 2.88156 45.9559 2.57901ZM142.412 2.5839C142.283 1.92117 143.902 2.18984 144.021 2.33705C144.52 2.92868 142.539 2.4373 142.412 2.5839ZM167.481 2.43305C167.76 1.91497 168.577 2.18532 169.089 2.19441C168.855 2.63732 167.916 2.44409 167.481 2.43305ZM163.739 2.01273C163.77 1.99289 164.496 2.0422 164.528 2.06622C165.119 2.5753 163.073 2.43856 163.739 2.01273ZM8.34803 2.45768C8.37237 2.44131 8.91359 2.48211 8.93197 2.50188C9.40845 3.00716 7.78442 2.88218 8.34803 2.45768Z" fill="#A9C7F7"/>
</g>
<defs>
<clipPath id="clip0_6_34">
<rect width="235" height="51" fill="white"/>
</clipPath>
</defs>
</svg>
